# xmcd
#
# Track frame offsets: 
#        182
#        11860
#        25152
#        39950
#        53057
#        71762
#        84242
#        98067
#        114097
#        129227
#
# Disc length: 1949 seconds
#
# Revision: 3
# Processed by: cddbd v1.5.2PL0 Copyright (c) Steve Scherf et al.
# Submitted via: ExactAudioCopy v1.1
#
DISCID=6f079b0a
DTITLE=Glen Campbell - Letter To Home
DYEAR=1984
DGENRE=Country
TTITLE0=I'll Be Faithful To You
TTITLE1=(Love Always) Letter To Home
TTITLE2=Faithless Love
TTITLE3=Leavin' Eyes
TTITLE4=Goodnight Lady
TTITLE5=After The Glitter Fades
TTITLE6=Tennessee
TTITLE7=A Lady Like You
TTITLE8=Scene Of The Crime
TTITLE9=An American Trilogy
EXTD=Submitted By WinSkol\n\nCountry
EXTT0=
EXTT1=
EXTT2=
EXTT3=
EXTT4=
EXTT5=
EXTT6=
EXTT7=
EXTT8=
EXTT9=
PLAYORDER=
